<svg id="Layer_1" data-name="Layer 1" xmlns="http://www.w3.org/2000/svg" viewBox="0 0 170 34.72"><defs><style>.cls-1{fill:#6cace4;}.cls-2{fill:#f68d2e;}.cls-3{fill:#13294b;}.cls-4{fill:#dde5ed;}</style></defs><path class="cls-1" d="M28.62,10.81H24.21V6.5A6.6,6.6,0,0,0,11,6.5v4.41h4.4a8.73,8.73,0,0,1,8.8,8.7V24h4.41a6.51,6.51,0,0,0,6.6-6.5A6.62,6.62,0,0,0,28.62,10.81Z"/><path class="cls-2" d="M19.81,23.91a8.73,8.73,0,0,1-8.8-8.7v-4.4H6.6a6.5,6.5,0,1,0,0,13H11v4.41a6.6,6.6,0,0,0,13.2,0V23.81h-4.4Z"/><path class="cls-3" d="M15.41,10.81H11v4.4a8.79,8.79,0,0,0,8.8,8.7h4.4v-4.4A8.73,8.73,0,0,0,15.41,10.81Z"/><path class="cls-4" d="M44.13,26.12V8.61h3.5V26h-3.5Z"/><path class="cls-4" d="M65.44,26.12l-8-12.41V26.12H54V8.61h4.3l7.41,11.5V8.61h3.4V26h-3.7Z"/><path class="cls-4" d="M75.44,26.12V8.61H86.55v3.2h-7.7v4.3h6.9v3.1H79V26H75.44Z"/><path class="cls-4" d="M99.66,8.2a8.89,8.89,0,0,1,9.1,9.11,9.11,9.11,0,1,1-18.21,0A8.9,8.9,0,0,1,99.66,8.2Zm0,15a5.51,5.51,0,0,0,5.6-5.8,5.56,5.56,0,1,0-11.1,0A5.43,5.43,0,0,0,99.66,23.21Z"/><path class="cls-4" d="M122.87,13.81a3.12,3.12,0,0,0-3.2-2.5c-1.7,0-2.8,1.1-2.8,2.2s.6,1.7,1.9,2l2.5.5c3.2.6,4.9,2.7,4.9,5.1,0,2.7-2.3,5.41-6.4,5.41-4.7,0-6.7-3-7-5.41l3.2-.8a3.63,3.63,0,0,0,3.9,3.3c1.8,0,2.9-.9,2.9-2.1,0-1-.8-1.8-2.1-2.1l-2.5-.5c-2.8-.6-4.6-2.3-4.6-5,0-3.1,2.8-5.4,6.1-5.4,4.3,0,5.9,2.6,6.3,4.5Z"/><path class="cls-4" d="M131.18,19.91V8.61h3.4v11c0,2.3,1.3,3.5,3.3,3.5s3.4-1.2,3.4-3.5v-11h3.41v11.3c0,4.3-3,6.61-6.81,6.61S131.18,24.21,131.18,19.91Z"/><path class="cls-4" d="M166.6,26.12V13.91l-5,12.21h-2.91L153.59,14V26.12h-3.3V8.61h4.5l5.3,12.6,5.21-12.6H170V26h-3.4Z"/></svg>