<?xml version="1.0" encoding="UTF-8"?><svg id="Layer_1" xmlns="http://www.w3.org/2000/svg" viewBox="0 0 200 200"><defs><style>.cls-1{stroke:#f68d2e;}.cls-1,.cls-2{fill:none;stroke-linecap:round;stroke-linejoin:round;stroke-width:4px;}.cls-2{stroke:#6cace4;}</style></defs><path class="cls-2" d="M140.34,63.52l6.64-7.51c2.76-3.12,7.58-3.42,10.7-.66l2.17,1.92c3.12,2.76,3.42,7.58,.66,10.7l-2.58,2.92"/><g><path class="cls-2" d="M72.57,63.52l-6.64-7.51c-2.76-3.12-7.58-3.42-10.7-.66l-2.17,1.92c-3.12,2.76-3.42,7.58-.66,10.7l2.58,2.92"/><g><line class="cls-2" x1="26.59" y1="83.56" x2="76.74" y2="83.56"/><line class="cls-1" x1="5" y1="112.05" x2="66.71" y2="112.05"/><line class="cls-2" x1="19.91" y1="137.05" x2="70.05" y2="137.05"/><path class="cls-1" d="M54.7,143.58c3.94,6.81,9.17,12.77,15.36,17.56"/><path class="cls-1" d="M46.89,118.93c.37,4.11,1.15,8.1,2.3,11.93"/><path class="cls-1" d="M51.37,90.1c-1.97,4.65-3.36,9.6-4.11,14.76"/><path class="cls-1" d="M153.63,113.5c0,25.85-20.95,46.8-46.8,46.8h-13.37"/><path class="cls-1" d="M133.56,75.08c-7.58-5.28-16.79-8.38-26.73-8.38h-6.69"/><path class="cls-1" d="M59.18,76.74c11-14.24,28.25-23.41,47.64-23.41,33.23,0,60.17,26.94,60.17,60.17s-26.94,60.17-60.17,60.17H49.99"/><polyline class="cls-2" points="143.6 81.82 101.99 123.43 83.08 104.51"/></g><path class="cls-2" d="M102.71,42.11h-17.47v-10.85c0-2.71,2.22-4.93,4.93-4.93h31.05c2.71,0,4.93,2.22,4.93,4.93v10.85h-16.48"/><g><line class="cls-1" x1="96.57" y1="46.82" x2="96.57" y2="53.7"/><line class="cls-1" x1="114.81" y1="46.82" x2="114.81" y2="53.7"/></g></g></svg>