<?xml version="1.0" encoding="UTF-8"?><svg id="Layer_1" xmlns="http://www.w3.org/2000/svg" viewBox="0 0 200 200"><defs><style>.cls-1{stroke:#f68d2e;}.cls-1,.cls-2{fill:none;stroke-linecap:round;stroke-linejoin:round;stroke-width:4px;}.cls-2{stroke:#6cace4;}</style></defs><path class="cls-2" d="M91.23,31.44l3.68,6.1c2.5-.27,5.02-.38,7.54-.33"/><path class="cls-2" d="M36.26,61.87c.98-2.87,4-4.51,6.94-3.78l10.36,2.57c1.84-2.39,3.86-4.63,6.04-6.71l-3.89-10.06c-1.09-2.83,.16-6.03,2.88-7.36l19.71-9.66"/><path class="cls-2" d="M59.51,140.99l-10.81,4.18c-2.83,1.09-6.03-.16-7.36-2.88l-11.14-22.73c-1.34-2.72-.37-6.02,2.23-7.59l9.23-5.57c-.45-2.99-.67-5.99-.66-9.01l-9.76-4.32c-2.77-1.23-4.15-4.37-3.17-7.24l3.28-9.57"/><path class="cls-2" d="M106,151.32l-8.12,18.34c-1.23,2.77-4.37,4.15-7.24,3.17l-23.95-8.2c-2.87-.98-4.51-4-3.78-6.94l2.84-11.46"/><path class="cls-1" d="M68.76,59.84c-4.15,3.58-7.75,7.88-10.58,12.79l-13.36-3.31-5.43,15.85,12.58,5.57c-.98,7.09-.39,14.15,1.56,20.76l-12.02,7.25,7.37,15.05,13.52-5.22c4.12,5.17,9.29,9.56,15.35,12.8l-3.63,14.67,15.85,5.43,6.39-14.43c1.97,.2,3.93,.24,5.88,.2"/><path class="cls-1" d="M102.26,47.73c-4.3-.08-8.54,.39-12.64,1.39l-7.49-12.41-15.05,7.37,5.06,13.1c-1.16,.84-2.29,1.73-3.37,2.66"/><path class="cls-2" d="M93.14,129.72c-23.74-14.08-23.64-49.79,.4-63.53"/><line class="cls-1" x1="102.26" y1="63.15" x2="102.26" y2="135.04"/><line class="cls-2" x1="118.21" y1="117.33" x2="149.41" y2="135.51"/><line class="cls-2" x1="149.39" y1="96.47" x2="114.12" y2="96.53"/><line class="cls-2" x1="118.21" y1="75.72" x2="149.41" y2="57.53"/><circle class="cls-1" cx="160.79" cy="97.62" r="11.46"/><circle class="cls-1" cx="160.79" cy="50.3" r="11.46"/><circle class="cls-1" cx="160.79" cy="144.94" r="11.46"/></svg>